# Blender v2.77 (sub 0) OBJ File: ''
# www.blender.org
mtllib StraightTrack.mtl
o StraightTrack_0
v -1.000000 -0.028619 0.310139
v -1.000000 -0.028619 0.128170
v 1.000000 -0.028619 0.128170
v 1.000000 -0.028619 0.310139
v -1.000000 0.006663 0.310139
v 0.999999 0.006663 0.310139
v 1.000000 0.006663 0.274433
v -1.000000 0.006663 0.274433
v -1.000000 0.006663 0.310139
v -1.000000 -0.028619 0.310139
v 1.000000 -0.028619 0.310139
v 0.999999 0.006663 0.310139
v -1.000000 0.006663 0.163876
v 1.000000 0.006663 0.163876
v 1.000000 0.006663 0.128170
v -1.000000 0.006663 0.128170
v -1.000000 -0.028619 0.128170
v -1.000000 0.006663 0.128170
v 1.000000 0.006663 0.128170
v 1.000000 -0.028619 0.128170
v -1.000000 0.044307 0.163876
v 1.000000 0.044307 0.163876
v 1.000000 0.006663 0.163876
v -1.000000 0.006663 0.163876
v 1.000000 0.044307 0.274433
v -1.000000 0.044307 0.274433
v -1.000000 0.006663 0.274433
v 1.000000 0.006663 0.274433
v 1.000000 0.044307 0.163876
v -1.000000 0.044307 0.163876
v -1.000000 0.063983 0.183552
v 1.000000 0.063983 0.183552
v 1.000000 0.063983 0.254757
v -1.000000 0.063983 0.254757
v -1.000000 0.044307 0.274433
v 1.000000 0.044307 0.274433
v -1.000000 0.063983 0.254757
v 1.000000 0.063983 0.254757
v 1.000000 0.063983 0.183552
v -1.000000 0.063983 0.183552
v 1.000000 -0.028619 -0.287340
v 0.999999 -0.028619 -0.105370
v -1.000000 -0.028619 -0.105370
v -1.000000 -0.028619 -0.287339
v 1.000000 0.006663 -0.287340
v -1.000000 0.006663 -0.287339
v -1.000000 0.006663 -0.251634
v 1.000000 0.006663 -0.251634
v 1.000000 0.006663 -0.287340
v 1.000000 -0.028619 -0.287340
v -1.000000 -0.028619 -0.287339
v -1.000000 0.006663 -0.287339
v 1.000000 0.006663 -0.141076
v -1.000000 0.006663 -0.141076
v -1.000001 0.006663 -0.105370
v 1.000000 0.006663 -0.105370
v 0.999999 -0.028619 -0.105370
v 1.000000 0.006663 -0.105370
v -1.000001 0.006663 -0.105370
v -1.000000 -0.028619 -0.105370
v 1.000000 0.044307 -0.141076
v -1.000000 0.044307 -0.141076
v -1.000000 0.006663 -0.141076
v 1.000000 0.006663 -0.141076
v -1.000000 0.044307 -0.251634
v 1.000000 0.044307 -0.251634
v 1.000000 0.006663 -0.251634
v -1.000000 0.006663 -0.251634
v -1.000000 0.044307 -0.141076
v 1.000000 0.044307 -0.141076
v 1.000000 0.063983 -0.160752
v -1.000000 0.063983 -0.160752
v -1.000000 0.063983 -0.231957
v 1.000000 0.063983 -0.231958
v 1.000000 0.044307 -0.251634
v -1.000000 0.044307 -0.251634
v 1.000000 0.063983 -0.231958
v -1.000000 0.063983 -0.231957
v -1.000000 0.063983 -0.160752
v 1.000000 0.063983 -0.160752
v -0.246987 -0.028888 -0.375967
v -0.246987 -0.064599 -0.375967
v -0.246987 -0.064599 0.432353
v -0.246987 -0.028888 0.432353
v -0.125902 -0.028888 -0.375967
v -0.125902 -0.064599 -0.375967
v -0.246987 -0.064599 -0.375967
v -0.246987 -0.028888 -0.375967
v -0.125902 -0.028888 0.432353
v -0.125902 -0.064599 0.432353
v -0.125902 -0.064599 -0.375967
v -0.125902 -0.028888 -0.375967
v -0.246987 -0.028888 0.432353
v -0.246987 -0.064599 0.432353
v -0.125902 -0.064599 0.432353
v -0.125902 -0.028888 0.432353
v -0.125902 -0.064599 0.432353
v -0.246987 -0.064599 0.432353
v -0.246987 -0.064599 -0.375967
v -0.125902 -0.064599 -0.375967
v -0.246987 -0.028888 0.432353
v -0.125902 -0.028888 0.432353
v -0.125902 -0.028888 -0.375967
v -0.246987 -0.028888 -0.375967
v 0.029051 -0.028888 -0.350119
v 0.029051 -0.064599 -0.350119
v 0.133264 -0.064599 0.442541
v 0.133264 -0.028888 0.442541
v 0.147790 -0.028888 -0.386155
v 0.147790 -0.064599 -0.386155
v 0.029051 -0.064599 -0.350119
v 0.029051 -0.028888 -0.350119
v 0.252003 -0.028888 0.406505
v 0.252003 -0.064599 0.406505
v 0.147790 -0.064599 -0.386155
v 0.147790 -0.028888 -0.386155
v 0.133264 -0.028888 0.442541
v 0.133264 -0.064599 0.442541
v 0.252003 -0.064599 0.406505
v 0.252003 -0.028888 0.406505
v 0.252003 -0.064599 0.406505
v 0.133264 -0.064599 0.442541
v 0.029051 -0.064599 -0.350119
v 0.147790 -0.064599 -0.386155
v 0.133264 -0.028888 0.442541
v 0.252003 -0.028888 0.406505
v 0.147790 -0.028888 -0.386155
v 0.029051 -0.028888 -0.350119
v 0.451540 -0.028888 -0.386116
v 0.451540 -0.064599 -0.386116
v 0.349058 -0.064599 0.407065
v 0.349058 -0.028888 0.407065
v 0.570358 -0.028888 -0.350678
v 0.570358 -0.064599 -0.350678
v 0.451540 -0.064599 -0.386116
v 0.451540 -0.028888 -0.386116
v 0.467875 -0.028888 0.442503
v 0.467875 -0.064599 0.442503
v 0.570358 -0.064599 -0.350678
v 0.570358 -0.028888 -0.350678
v 0.349058 -0.028888 0.407065
v 0.349058 -0.064599 0.407065
v 0.467875 -0.064599 0.442503
v 0.467875 -0.028888 0.442503
v 0.467875 -0.064599 0.442503
v 0.349058 -0.064599 0.407065
v 0.451540 -0.064599 -0.386116
v 0.570358 -0.064599 -0.350678
v 0.349058 -0.028888 0.407065
v 0.467875 -0.028888 0.442503
v 0.570358 -0.028888 -0.350678
v 0.451540 -0.028888 -0.386116
v 0.753371 -0.028888 -0.375967
v 0.753371 -0.064599 -0.375967
v 0.753371 -0.064599 0.432353
v 0.753371 -0.028888 0.432353
v 0.874456 -0.028888 -0.375967
v 0.874456 -0.064599 -0.375967
v 0.753371 -0.064599 -0.375967
v 0.753371 -0.028888 -0.375967
v 0.874456 -0.028888 0.432353
v 0.874456 -0.064599 0.432353
v 0.874456 -0.064599 -0.375967
v 0.874456 -0.028888 -0.375967
v 0.753371 -0.028888 0.432353
v 0.753371 -0.064599 0.432353
v 0.874456 -0.064599 0.432353
v 0.874456 -0.028888 0.432353
v 0.874456 -0.064599 0.432353
v 0.753371 -0.064599 0.432353
v 0.753371 -0.064599 -0.375967
v 0.874456 -0.064599 -0.375967
v 0.753371 -0.028888 0.432353
v 0.874456 -0.028888 0.432353
v 0.874456 -0.028888 -0.375967
v 0.753371 -0.028888 -0.375967
v -0.835640 -0.028888 -0.386116
v -0.835640 -0.064599 -0.386116
v -0.938122 -0.064599 0.407065
v -0.938122 -0.028888 0.407065
v -0.716823 -0.028888 -0.350678
v -0.716823 -0.064599 -0.350678
v -0.835640 -0.064599 -0.386116
v -0.835640 -0.028888 -0.386116
v -0.819305 -0.028888 0.442503
v -0.819305 -0.064599 0.442503
v -0.716823 -0.064599 -0.350678
v -0.716823 -0.028888 -0.350678
v -0.938122 -0.028888 0.407065
v -0.938122 -0.064599 0.407065
v -0.819305 -0.064599 0.442503
v -0.819305 -0.028888 0.442503
v -0.819305 -0.064599 0.442503
v -0.938122 -0.064599 0.407065
v -0.835640 -0.064599 -0.386116
v -0.716823 -0.064599 -0.350678
v -0.938122 -0.028888 0.407065
v -0.819305 -0.028888 0.442503
v -0.716823 -0.028888 -0.350678
v -0.835640 -0.028888 -0.386116
v -0.577303 -0.028888 -0.368244
v -0.577303 -0.064599 -0.368244
v -0.538777 -0.064599 0.437953
v -0.538777 -0.028888 0.437953
v -0.456536 -0.028888 -0.381567
v -0.456536 -0.064599 -0.381567
v -0.577303 -0.064599 -0.368244
v -0.577303 -0.028888 -0.368244
v -0.418009 -0.028888 0.424631
v -0.418009 -0.064599 0.424631
v -0.456536 -0.064599 -0.381567
v -0.456536 -0.028888 -0.381567
v -0.538777 -0.028888 0.437953
v -0.538777 -0.064599 0.437953
v -0.418009 -0.064599 0.424631
v -0.418009 -0.028888 0.424631
v -0.418009 -0.064599 0.424631
v -0.538777 -0.064599 0.437953
v -0.577303 -0.064599 -0.368244
v -0.456536 -0.064599 -0.381567
v -0.538777 -0.028888 0.437953
v -0.418009 -0.028888 0.424631
v -0.456536 -0.028888 -0.381567
v -0.577303 -0.028888 -0.368244
vt 0.5598 0.6455
vt 0.4836 0.6455
vt 0.4836 0.2722
vt 0.5598 0.2722
vt 0.4837 0.6501
vt 0.4480 0.6501
vt 0.4480 0.2659
vt 0.4837 0.2659
vt 0.4086 0.6500
vt 0.3721 0.6500
vt 0.3721 0.2764
vt 0.4086 0.2764
vt 0.4837 0.6501
vt 0.4480 0.6501
vt 0.4480 0.2659
vt 0.4837 0.2659
vt 0.3720 0.6500
vt 0.3354 0.6500
vt 0.3354 0.2764
vt 0.3720 0.2764
vt 0.1468 0.0240
vt 0.7711 0.0240
vt 0.7711 0.0414
vt 0.1468 0.0414
vt 0.7711 0.0417
vt 0.1468 0.0417
vt 0.1468 0.0242
vt 0.7711 0.0242
vt 0.9560 0.0343
vt 0.0009 0.0343
vt 0.0008 0.0261
vt 0.9560 0.0261
vt 0.9560 0.0094
vt 0.0008 0.0094
vt 0.0007 0.0012
vt 0.9559 0.0012
vt 0.0008 0.0094
vt 0.9560 0.0094
vt 0.9560 0.0261
vt 0.0008 0.0261
vt 0.5598 0.6455
vt 0.4836 0.6455
vt 0.4836 0.2722
vt 0.5598 0.2722
vt 0.4837 0.6501
vt 0.4480 0.6501
vt 0.4480 0.2659
vt 0.4837 0.2659
vt 0.4086 0.6500
vt 0.3721 0.6500
vt 0.3721 0.2764
vt 0.4086 0.2764
vt 0.4837 0.6501
vt 0.4480 0.6501
vt 0.4480 0.2659
vt 0.4837 0.2659
vt 0.3720 0.6500
vt 0.3354 0.6500
vt 0.3354 0.2764
vt 0.3720 0.2764
vt 0.1468 0.0240
vt 0.7711 0.0240
vt 0.7711 0.0414
vt 0.1468 0.0414
vt 0.7711 0.0417
vt 0.1468 0.0417
vt 0.1468 0.0242
vt 0.7711 0.0242
vt 0.9560 0.0343
vt 0.0009 0.0343
vt 0.0008 0.0261
vt 0.9560 0.0261
vt 0.9560 0.0094
vt 0.0008 0.0094
vt 0.0007 0.0012
vt 0.9559 0.0012
vt 0.0008 0.0094
vt 0.9560 0.0094
vt 0.9560 0.0261
vt 0.0008 0.0261
vt 0.3336 0.2596
vt 0.3731 0.2596
vt 0.3731 0.6606
vt 0.3336 0.6606
vt 0.4594 0.2349
vt 0.4594 0.2422
vt 0.4274 0.2422
vt 0.4274 0.2349
vt 0.3336 0.2596
vt 0.3731 0.2596
vt 0.3731 0.6606
vt 0.3336 0.6606
vt 0.3923 0.2425
vt 0.3923 0.2350
vt 0.4256 0.2350
vt 0.4256 0.2425
vt 0.4535 0.1840
vt 0.4056 0.1840
vt 0.4056 0.0665
vt 0.4535 0.0665
vt 0.4535 0.1840
vt 0.4056 0.1840
vt 0.4056 0.0665
vt 0.4535 0.0665
vt 0.3336 0.2596
vt 0.3731 0.2596
vt 0.3731 0.6606
vt 0.3336 0.6606
vt 0.4594 0.2349
vt 0.4594 0.2422
vt 0.4274 0.2422
vt 0.4274 0.2349
vt 0.3336 0.2596
vt 0.3731 0.2596
vt 0.3731 0.6606
vt 0.3336 0.6606
vt 0.3923 0.2425
vt 0.3923 0.2350
vt 0.4256 0.2350
vt 0.4256 0.2425
vt 0.4535 0.1840
vt 0.4056 0.1840
vt 0.4056 0.0665
vt 0.4535 0.0665
vt 0.4535 0.1840
vt 0.4056 0.1840
vt 0.4056 0.0665
vt 0.4535 0.0665
vt 0.3336 0.2596
vt 0.3731 0.2596
vt 0.3731 0.6606
vt 0.3336 0.6606
vt 0.4594 0.2349
vt 0.4594 0.2422
vt 0.4274 0.2422
vt 0.4274 0.2349
vt 0.3336 0.2596
vt 0.3731 0.2596
vt 0.3731 0.6606
vt 0.3336 0.6606
vt 0.3923 0.2425
vt 0.3923 0.2350
vt 0.4256 0.2350
vt 0.4256 0.2425
vt 0.4535 0.1840
vt 0.4056 0.1840
vt 0.4056 0.0665
vt 0.4535 0.0665
vt 0.4535 0.1840
vt 0.4056 0.1840
vt 0.4056 0.0665
vt 0.4535 0.0665
vt 0.3336 0.2596
vt 0.3731 0.2596
vt 0.3731 0.6606
vt 0.3336 0.6606
vt 0.4594 0.2349
vt 0.4594 0.2422
vt 0.4274 0.2422
vt 0.4274 0.2349
vt 0.3336 0.2596
vt 0.3731 0.2596
vt 0.3731 0.6606
vt 0.3336 0.6606
vt 0.3923 0.2425
vt 0.3923 0.2350
vt 0.4256 0.2350
vt 0.4256 0.2425
vt 0.4535 0.1840
vt 0.4056 0.1840
vt 0.4056 0.0665
vt 0.4535 0.0665
vt 0.4535 0.1840
vt 0.4056 0.1840
vt 0.4056 0.0665
vt 0.4535 0.0665
vt 0.3336 0.2596
vt 0.3731 0.2596
vt 0.3731 0.6606
vt 0.3336 0.6606
vt 0.4594 0.2349
vt 0.4594 0.2422
vt 0.4274 0.2422
vt 0.4274 0.2349
vt 0.3336 0.2596
vt 0.3731 0.2596
vt 0.3731 0.6606
vt 0.3336 0.6606
vt 0.3923 0.2425
vt 0.3923 0.2350
vt 0.4256 0.2350
vt 0.4256 0.2425
vt 0.4535 0.1840
vt 0.4056 0.1840
vt 0.4056 0.0665
vt 0.4535 0.0665
vt 0.4535 0.1840
vt 0.4056 0.1840
vt 0.4056 0.0665
vt 0.4535 0.0665
vt 0.3336 0.2596
vt 0.3731 0.2596
vt 0.3731 0.6606
vt 0.3336 0.6606
vt 0.4594 0.2349
vt 0.4594 0.2422
vt 0.4274 0.2422
vt 0.4274 0.2349
vt 0.3336 0.2596
vt 0.3731 0.2596
vt 0.3731 0.6606
vt 0.3336 0.6606
vt 0.3923 0.2425
vt 0.3923 0.2350
vt 0.4256 0.2350
vt 0.4256 0.2425
vt 0.4535 0.1840
vt 0.4056 0.1840
vt 0.4056 0.0665
vt 0.4535 0.0665
vt 0.4535 0.1840
vt 0.4056 0.1840
vt 0.4056 0.0665
vt 0.4535 0.0665
vn 0.0000 -1.0000 -0.0000
vn -0.0000 1.0000 0.0000
vn -0.0000 -0.0000 1.0000
vn 0.0000 0.0000 -1.0000
vn 0.0000 0.7071 -0.7071
vn -0.0000 0.7071 0.7071
vn -1.0000 0.0000 0.0000
vn 1.0000 0.0000 0.0000
vn -0.9915 0.0000 0.1304
vn -0.2904 0.0000 -0.9569
vn 0.9915 0.0000 -0.1304
vn 0.2904 0.0000 0.9569
vn -0.9918 0.0000 -0.1281
vn 0.2858 0.0000 -0.9583
vn 0.9918 0.0000 0.1281
vn -0.2858 0.0000 0.9583
vn -0.9989 0.0000 0.0477
vn -0.1096 0.0000 -0.9940
vn 0.9989 0.0000 -0.0477
vn 0.1096 0.0000 0.9940
usemtl Material
s 1
f 1/1/1 2/2/1 3/3/1
f 4/4/1 1/1/1 3/3/1
f 5/5/2 6/6/2 7/7/2
f 8/8/2 5/5/2 7/7/2
f 9/9/3 10/10/3 11/11/3
f 12/12/3 9/9/3 11/11/3
f 13/13/2 14/14/2 15/15/2
f 16/16/2 13/13/2 15/15/2
f 17/17/4 18/18/4 19/19/4
f 20/20/4 17/17/4 19/19/4
f 21/21/4 22/22/4 23/23/4
f 24/24/4 21/21/4 23/23/4
f 25/25/3 26/26/3 27/27/3
f 28/28/3 25/25/3 27/27/3
f 29/29/5 30/30/5 31/31/5
f 32/32/5 29/29/5 31/31/5
f 33/33/6 34/34/6 35/35/6
f 36/36/6 33/33/6 35/35/6
f 37/37/2 38/38/2 39/39/2
f 40/40/2 37/37/2 39/39/2
f 41/41/1 42/42/1 43/43/1
f 44/44/1 41/41/1 43/43/1
f 45/45/2 46/46/2 47/47/2
f 48/48/2 45/45/2 47/47/2
f 49/49/4 50/50/4 51/51/4
f 52/52/4 49/49/4 51/51/4
f 53/53/2 54/54/2 55/55/2
f 56/56/2 53/53/2 55/55/2
f 57/57/3 58/58/3 59/59/3
f 60/60/3 57/57/3 59/59/3
f 61/61/3 62/62/3 63/63/3
f 64/64/3 61/61/3 63/63/3
f 65/65/4 66/66/4 67/67/4
f 68/68/4 65/65/4 67/67/4
f 69/69/6 70/70/6 71/71/6
f 72/72/6 69/69/6 71/71/6
f 73/73/5 74/74/5 75/75/5
f 76/76/5 73/73/5 75/75/5
f 77/77/2 78/78/2 79/79/2
f 80/80/2 77/77/2 79/79/2
f 81/81/7 82/82/7 83/83/7
f 84/84/7 81/81/7 83/83/7
f 85/85/4 86/86/4 87/87/4
f 88/88/4 85/85/4 87/87/4
f 89/89/8 90/90/8 91/91/8
f 92/92/8 89/89/8 91/91/8
f 93/93/3 94/94/3 95/95/3
f 96/96/3 93/93/3 95/95/3
f 97/97/1 98/98/1 99/99/1
f 100/100/1 97/97/1 99/99/1
f 101/101/2 102/102/2 103/103/2
f 104/104/2 101/101/2 103/103/2
f 105/105/9 106/106/9 107/107/9
f 108/108/9 105/105/9 107/107/9
f 109/109/10 110/110/10 111/111/10
f 112/112/10 109/109/10 111/111/10
f 113/113/11 114/114/11 115/115/11
f 116/116/11 113/113/11 115/115/11
f 117/117/12 118/118/12 119/119/12
f 120/120/12 117/117/12 119/119/12
f 121/121/1 122/122/1 123/123/1
f 124/124/1 121/121/1 123/123/1
f 125/125/2 126/126/2 127/127/2
f 128/128/2 125/125/2 127/127/2
f 129/129/13 130/130/13 131/131/13
f 132/132/13 129/129/13 131/131/13
f 133/133/14 134/134/14 135/135/14
f 136/136/14 133/133/14 135/135/14
f 137/137/15 138/138/15 139/139/15
f 140/140/15 137/137/15 139/139/15
f 141/141/16 142/142/16 143/143/16
f 144/144/16 141/141/16 143/143/16
f 145/145/1 146/146/1 147/147/1
f 148/148/1 145/145/1 147/147/1
f 149/149/2 150/150/2 151/151/2
f 152/152/2 149/149/2 151/151/2
f 153/153/7 154/154/7 155/155/7
f 156/156/7 153/153/7 155/155/7
f 157/157/4 158/158/4 159/159/4
f 160/160/4 157/157/4 159/159/4
f 161/161/8 162/162/8 163/163/8
f 164/164/8 161/161/8 163/163/8
f 165/165/3 166/166/3 167/167/3
f 168/168/3 165/165/3 167/167/3
f 169/169/1 170/170/1 171/171/1
f 172/172/1 169/169/1 171/171/1
f 173/173/2 174/174/2 175/175/2
f 176/176/2 173/173/2 175/175/2
f 177/177/13 178/178/13 179/179/13
f 180/180/13 177/177/13 179/179/13
f 181/181/14 182/182/14 183/183/14
f 184/184/14 181/181/14 183/183/14
f 185/185/15 186/186/15 187/187/15
f 188/188/15 185/185/15 187/187/15
f 189/189/16 190/190/16 191/191/16
f 192/192/16 189/189/16 191/191/16
f 193/193/1 194/194/1 195/195/1
f 196/196/1 193/193/1 195/195/1
f 197/197/2 198/198/2 199/199/2
f 200/200/2 197/197/2 199/199/2
f 201/201/17 202/202/17 203/203/17
f 204/204/17 201/201/17 203/203/17
f 205/205/18 206/206/18 207/207/18
f 208/208/18 205/205/18 207/207/18
f 209/209/19 210/210/19 211/211/19
f 212/212/19 209/209/19 211/211/19
f 213/213/20 214/214/20 215/215/20
f 216/216/20 213/213/20 215/215/20
f 217/217/1 218/218/1 219/219/1
f 220/220/1 217/217/1 219/219/1
f 221/221/2 222/222/2 223/223/2
f 224/224/2 221/221/2 223/223/2
